<?xml version="1.0" encoding="UTF-8"?>
<svg id="Layer_1" data-name="Layer 1" xmlns="http://www.w3.org/2000/svg" viewBox="0 0 280 280">
  <defs>
    <style>
      .cls-1 {
        fill: #2addd8;
        stroke-width: 0px;
      }
    </style>
  </defs>
  <path class="cls-1" d="m140,50l-90,90,90,90,90-90-90-90Zm0,172.27l-82.27-82.27,61.29-61.29,28.12,28.12c-10.89-2.32-22.71.71-31.15,9.16-13.24,13.24-13.24,34.79,0,48.04l41.14,41.14-17.12,17.12Zm20.15-102.42c11.11,11.11,11.11,29.19,0,40.31-11.12,11.11-29.2,11.11-40.31,0-11.11-11.11-11.11-29.19,0-40.31,11.11-11.11,29.2-11.11,40.31,0Zm-27.29,53.33c2.35.5,4.74.78,7.13.78,8.7,0,17.4-3.31,24.02-9.93,13.24-13.24,13.24-34.79,0-48.04l-41.14-41.14,17.12-17.12,82.27,82.27-61.29,61.29-28.12-28.12Z"/>
</svg>